<svg width="9" height="9" viewBox="0 0 9 9" fill="none" xmlns="http://www.w3.org/2000/svg">
<path d="M8.14 3.73613V4.40387C8.12092 4.53726 8.10995 4.67239 8.08149 4.80371C7.72728 6.43934 6.75048 7.50565 5.15109 8.00264C4.90785 8.07847 4.65538 8.11011 4.40387 8.14H3.73613C3.6002 8.1206 3.46236 8.10963 3.3285 8.08038C1.69711 7.72362 0.633288 6.74746 0.137045 5.15189C0.0635938 4.91373 0.0329098 4.66619 0 4.41977V3.72023C0.0190781 3.59209 0.0317969 3.46252 0.0581883 3.33629C0.410498 1.70288 1.38889 0.639435 2.98048 0.138793C3.22086 0.0635937 3.47111 0.0327508 3.72023 0H4.41977C4.52962 0.0158984 4.64091 0.0241656 4.74934 0.0462645C6.36155 0.374832 7.43496 1.31734 7.96957 2.8738C8.0648 3.15282 8.10725 3.44392 8.14 3.73613ZM4.0231 6.32329H5.42979C5.54299 6.32329 5.54347 6.32329 5.54363 6.20659C5.54363 5.58941 5.54363 4.97218 5.54363 4.3549C5.54363 4.17207 5.54251 3.98924 5.54442 3.80656C5.54442 3.74933 5.52375 3.7223 5.46493 3.72612C5.43313 3.72818 5.40134 3.72612 5.36954 3.72612C4.72056 3.72612 4.07154 3.72612 3.42246 3.72612C3.36093 3.72612 3.31562 3.72357 3.31626 3.63995C3.31959 3.26125 3.31212 2.88223 3.31991 2.50353C3.32818 2.09176 3.71467 1.77538 4.12103 1.83675C4.51023 1.89557 4.77637 2.25201 4.72517 2.64757C4.72327 2.66347 4.72661 2.68191 4.70832 2.68858C4.68702 2.69653 4.67398 2.67873 4.66142 2.66633C4.59147 2.59765 4.52152 2.52896 4.45331 2.45853C4.41849 2.42276 4.38829 2.42006 4.35267 2.4571C4.29957 2.51259 4.24536 2.56712 4.18987 2.62006C4.1522 2.65599 4.15649 2.68509 4.19194 2.72022C4.41569 2.9428 4.63863 3.16538 4.86079 3.38796C4.89259 3.41975 4.91786 3.42723 4.95348 3.39145C5.17786 3.16612 5.40271 2.94185 5.62805 2.71863C5.66127 2.68572 5.65682 2.66283 5.62598 2.63326C5.56859 2.57841 5.51135 2.52308 5.45762 2.46458C5.41914 2.4226 5.39005 2.42737 5.35316 2.46648C5.28957 2.53389 5.2228 2.59828 5.15666 2.66331C5.1441 2.67555 5.12947 2.6959 5.11039 2.68223C5.1007 2.67523 5.09863 2.65409 5.09799 2.63914C5.0945 2.55456 5.09704 2.4703 5.08512 2.38572C5.01802 1.90718 4.62072 1.51623 4.15076 1.46997C3.63709 1.41941 3.17555 1.71051 3.01037 2.1854C2.95393 2.34868 2.95711 2.51752 2.95711 2.68684C2.95711 2.99421 2.95711 3.30158 2.95711 3.60895C2.95711 3.72373 2.95441 3.72564 2.84312 3.72596C2.76363 3.72596 2.68413 3.72596 2.60464 3.72596C2.50575 3.72596 2.50337 3.72866 2.50337 3.83041C2.50337 4.62533 2.50337 5.42025 2.50337 6.21518C2.50337 6.32058 2.50575 6.32329 2.60957 6.32344C3.08038 6.32355 3.55155 6.3235 4.0231 6.32329Z" fill="#B5B5B5"/>
<path d="M4.01878 5.9521C3.66902 5.9521 3.31925 5.95019 2.96949 5.95353C2.89238 5.95353 2.8698 5.92841 2.87012 5.85305C2.87266 5.29936 2.87266 4.74562 2.87012 4.19183C2.87012 4.11742 2.89762 4.09644 2.9679 4.09644C3.66997 4.09803 4.37205 4.09803 5.07412 4.09644C5.15139 4.09644 5.1738 4.1241 5.17349 4.19866C5.17126 4.74981 5.17126 5.30095 5.17349 5.8521C5.17349 5.93493 5.14471 5.9548 5.06728 5.95417C4.71831 5.95019 4.36855 5.9521 4.01878 5.9521Z" fill="#B5B5B5"/>
</svg>
